<svg width="62" height="60" viewBox="0 0 62 60" fill="none" xmlns="http://www.w3.org/2000/svg">
<g id="Layer_1" clip-path="url(#clip0_72_24)">
<path id="Vector" d="M49.9078 26.8353C50.3325 27.6524 49.7751 28.1842 49.3107 28.7549C48.3685 29.8963 47.4264 31.0506 46.4975 32.205C45.9004 32.9443 45.343 33.1259 44.4407 32.2309C44.162 32.5552 44.0028 32.8794 44.2682 33.2945C44.3345 33.3723 44.3876 33.4501 44.4539 33.515C46.0994 34.7342 47.7449 35.9404 49.4036 37.1466C52.0443 39.0792 54.685 41.0117 57.3389 42.9443C58.6128 43.8781 59.9 44.786 61.1739 45.7199C61.2137 45.8366 61.2668 45.9404 61.3066 46.0571C61.3464 46.2127 61.3862 46.3814 61.426 46.537V46.7705C61.2933 46.8872 61.1341 46.978 61.0279 47.1077C59.9398 48.5085 58.865 49.9222 57.7636 51.31C57.6176 51.4916 57.3257 51.5954 57.0735 51.6862C56.4764 51.9196 56.1314 51.3749 55.6802 51.1544V58.1453C57.1399 58.1453 58.573 58.1712 60.0062 58.1323C60.6564 58.1064 61.081 58.3528 61.4128 58.8457V60.013H0.623752C0.146039 59.7147 -0.119358 59.3126 0.0664198 58.7549C0.252197 58.1972 0.72991 58.1323 1.2607 58.1323C2.73365 58.1453 4.21987 58.1323 5.73263 58.1323V51.0636C5.44069 51.2581 5.20184 51.4397 4.96298 51.6083C4.48527 51.9196 4.08717 51.8677 3.71562 51.4008C2.56114 49.9482 1.40667 48.5085 0.252197 47.0558C-0.145897 46.55 -0.0795481 45.9793 0.464514 45.5772C3.17156 43.5798 5.8786 41.6083 8.58564 39.6109C10.8946 37.9248 13.1903 36.2257 15.4859 34.5266C15.831 34.2802 16.1362 33.9689 16.5077 33.7744C17.2243 33.4112 17.4499 32.8664 17.2243 32.0623C16.9589 32.2439 16.6802 32.4125 16.4016 32.5941C15.8575 32.9443 15.4594 32.9313 15.0746 32.4644C13.8936 31.0506 12.7258 29.6369 11.5713 28.1972C11.0538 27.5616 11.2396 27.0299 12.0225 26.4203C13.8007 25.0454 15.5656 23.6576 17.3437 22.2828C19.4403 20.6615 21.5502 19.0402 23.6469 17.406C24.9739 16.3684 26.2876 15.3048 27.6013 14.2413C27.7074 14.1635 27.8136 14.0078 27.8136 13.8911C27.8269 12.4125 27.8136 10.9339 27.8136 9.37747C27.0439 9.37747 26.3141 9.37747 25.5843 9.37747C25.2525 9.37747 24.8544 9.48123 24.589 9.33856C24.3502 9.20886 24.2573 8.83273 24.0981 8.56035C24.0582 8.48253 24.0317 8.40471 23.9919 8.31392C23.9919 7.2374 23.9919 6.17384 23.9786 5.09732C23.9388 3.76139 24.2971 3.89109 25.3587 3.76139C26.1416 3.6706 26.9511 3.74842 27.8269 3.74842C27.8269 2.9313 27.8269 2.14012 27.8269 1.34894C27.8269 0.285385 27.8269 0.142713 28.8486 0.0648921C30.1624 -0.0518394 31.4893 0.0648921 32.8163 0.129743C33.3736 0.155683 33.5727 0.609639 33.586 1.11548C33.586 1.97151 33.586 2.82754 33.586 3.74842C34.1035 3.74842 34.5945 3.74842 35.0855 3.74842C37.4342 3.69654 37.4873 4.0597 37.4209 6.05711C37.3944 6.91314 37.4209 7.76917 37.4209 8.6252C37.2617 8.7549 37.1025 8.88461 36.9565 9.01431C36.7176 9.13104 36.4921 9.33856 36.2532 9.35153C35.3774 9.39044 34.5149 9.3645 33.6258 9.3645V14.0467C33.9708 14.358 34.2893 14.6952 34.6476 14.9806C35.948 16.0052 37.275 17.0169 38.5887 18.0415C39.8759 19.0402 41.1365 20.0649 42.4237 21.0636C43.9497 22.2568 45.4757 23.4371 47.015 24.6174C47.9837 25.3567 48.9524 26.096 49.9211 26.8353H49.9078ZM29.7643 58.0934H32.6438C32.6438 56.2128 32.6571 54.371 32.6305 52.5422C32.6305 52.205 32.4182 51.8807 32.2988 51.5435C31.8874 50.9728 31.3699 50.6745 30.6003 50.7134C29.5121 50.7653 28.8088 51.4008 28.8088 52.4903C28.8088 53.5279 28.8088 54.5526 28.8088 55.5902C28.8088 56.4203 28.8088 57.2504 28.8088 58.0934H29.7643ZM29.7643 8.41768V13.0351C30.096 13.0091 30.4012 12.9962 30.7197 12.9702H31.6618C31.6618 12.7497 31.6618 12.5552 31.6618 12.3606C31.6618 11.0377 31.6486 9.70173 31.6884 8.37877C31.6884 8.15828 31.8609 7.79511 32.0334 7.73026C32.5244 7.57462 33.0552 7.50977 33.5727 7.47086C34.1566 7.43195 34.7537 7.47086 35.3641 7.47086V5.70692C34.3556 5.59018 33.4002 5.36969 32.4315 5.39563C31.7415 5.4086 31.6751 5.13623 31.6618 4.64336C31.6486 4.02079 31.6353 3.39823 31.6353 2.77566V1.88072H29.7377C29.7377 2.73675 29.7377 3.55387 29.7377 4.37099C29.7377 5.03247 29.1671 5.59018 28.5036 5.59018C27.6146 5.59018 26.7255 5.59018 25.8497 5.59018V7.44492C26.2212 7.44492 26.553 7.44492 26.898 7.44492C27.2961 7.44492 27.6942 7.4968 28.0923 7.44492C28.915 7.34116 29.3927 7.76917 29.7775 8.39174L29.7643 8.41768ZM47.6254 27.5227C46.0065 26.2776 44.3876 25.0325 42.782 23.7744C41.2559 22.5681 39.7432 21.3489 38.2039 20.1427C36.2797 18.6252 34.3158 17.1596 32.405 15.6161C31.3566 14.7731 30.3481 14.4877 29.1273 15.4475C27.6942 16.5759 26.261 17.6784 24.8279 18.8068C23.3417 19.9741 21.8687 21.1674 20.3692 22.3347C18.8697 23.502 17.357 24.6434 15.8708 25.8107C15.1277 26.3943 14.3978 27.0039 13.6414 27.6135C13.8139 27.8211 13.9334 27.9637 14.0528 28.1194C14.6765 28.8976 15.3134 29.6628 15.9769 30.4929C16.4016 30.2076 16.8262 29.9352 17.2243 29.6239C20.0906 27.393 22.9038 25.0843 25.8364 22.9313C27.442 21.751 28.6761 20.013 30.7993 19.572C31.0249 19.5201 31.3434 19.572 31.5159 19.6888C32.2324 20.2076 32.9092 20.7783 33.5992 21.323C36.5451 23.6187 39.491 25.9274 42.4369 28.2231C43.4056 28.9884 44.3876 29.7406 45.4094 30.5448C46.1127 29.6888 46.7629 28.8716 47.4264 28.0545C47.506 27.9637 47.5856 27.8729 47.6652 27.7692C47.7183 27.7303 47.7847 27.7043 47.8377 27.6654C47.7714 27.6265 47.7051 27.5746 47.6387 27.5357L47.6254 27.5227ZM17.2641 36.4332V35.5772C12.2348 39.2607 7.27193 42.9054 2.28248 46.563C2.48153 46.7575 2.62749 46.8872 2.76019 47.0169C3.38387 47.847 4.00755 48.6771 4.64451 49.5072C5.4805 48.8846 6.22361 48.3399 6.96672 47.7951C10.3107 45.3697 13.6414 42.9443 16.9854 40.5059C17.1314 40.4021 17.2774 40.1687 17.2774 39.9871C17.2906 38.7938 17.2774 37.6135 17.2774 36.4203L17.2641 36.4332ZM44.1753 36.4332C44.1753 37.6265 44.1487 38.8198 44.1753 40C44.1753 40.1816 44.3212 40.4021 44.4672 40.5188C45.3696 41.2322 46.2852 41.9326 47.2273 42.607C49.7884 44.4618 52.3495 46.3165 54.9238 48.1583C55.5342 48.5993 56.1447 49.0402 56.7816 49.4942C57.4451 48.6122 58.0688 47.8081 58.6792 47.0039C58.8119 46.8483 58.9313 46.6926 59.0905 46.5111C54.1011 42.8535 49.1647 39.2348 44.1885 35.5902V36.4203L44.1753 36.4332ZM30.8391 45.3178C30.8391 45.3178 30.7595 45.2141 30.7197 45.1492L30.6003 45.3178C30.4012 45.4216 30.1756 45.5124 29.9898 45.6421C28.424 46.7316 26.8582 47.8211 25.3056 48.9495C25.1331 49.0792 24.9739 49.3645 24.9739 49.572C24.9473 52.2698 24.9606 54.9676 24.9739 57.6524C24.9739 57.7951 25.0004 57.9508 25.0004 58.0675H26.8847C26.8847 56.096 26.8847 54.1635 26.8847 52.2309C26.8847 52.0753 26.8582 51.9067 26.898 51.764C27.4155 49.9352 28.7956 48.5344 31.1709 48.8327C32.8163 49.0402 33.7983 49.9741 34.3291 51.4138C34.5149 51.9067 34.5281 52.4644 34.5414 52.9962C34.5679 54.6823 34.5414 56.3814 34.5414 58.0545H36.4655C36.4655 55.3308 36.4921 52.633 36.439 49.9352C36.439 49.5072 36.2267 49.0273 35.7489 48.703C34.0902 47.5876 32.4713 46.4332 30.8391 45.2919V45.3178ZM53.7163 50.6226C53.7694 50.0779 53.7561 49.6498 53.1589 49.2478C51.7789 48.3399 50.4917 47.3022 49.1647 46.3295C47.5193 45.1233 45.8605 43.93 44.1753 42.7108V58.1064H53.7163V50.6226ZM8.65199 58.1064H17.2641V42.7238C17.0651 42.8275 16.8925 42.8924 16.7598 42.9962C14.849 44.384 12.9381 45.7847 11.0406 47.1855C10.1913 47.8081 9.35529 48.4566 8.50602 49.1051C7.56386 49.3515 7.63021 50.0519 7.70983 50.7523V58.1194H8.65199V58.1064ZM20.1569 29.7406C19.3475 30.0779 19.029 30.6745 19.228 31.5175C19.228 31.6343 19.2015 31.751 19.2015 31.8677C19.2015 40.5059 19.2015 49.144 19.2015 57.7821C19.2015 57.8989 19.228 58.0026 19.2413 58.1064H23.0497C23.0497 57.8729 23.0497 57.6784 23.0497 57.4838C23.0497 54.6304 23.0365 51.777 23.0763 48.9365C23.0763 48.5863 23.2753 48.0934 23.554 47.8989C25.6904 46.3684 27.8799 44.9028 30.0297 43.3853C30.5737 42.9962 31.0116 43.1259 31.4628 43.4371C33.4135 44.786 35.3376 46.1609 37.3015 47.4968C38.0977 48.0415 38.4693 48.6511 38.4427 49.6498C38.3631 52.2828 38.4162 54.9157 38.4162 57.5616V58.0934H42.2512V57.7692C42.2512 49.157 42.2512 40.5448 42.2512 31.9456C42.2512 31.8159 42.2379 31.6732 42.2246 31.5435C42.4237 30.7783 42.1185 30.2594 41.4284 29.8833C41.1896 29.7536 40.964 29.585 40.7517 29.4294C37.474 26.8613 34.2096 24.2932 30.932 21.738C30.8258 21.6602 30.5472 21.6343 30.441 21.7121C29.2202 22.646 28.0126 23.5928 26.8051 24.5396C25.5047 25.5513 24.1777 26.55 22.8905 27.5746C21.9749 28.3009 21.0858 29.0402 20.1835 29.7795L20.1569 29.7406Z" fill="black"/>
<path id="Vector_2" d="M36.9565 9.00141C37.1154 8.87171 37.2742 8.74201 37.4197 8.6123C37.2609 8.74201 37.1021 8.87171 36.9565 9.00141Z" fill="white"/>
<path id="Vector_3" d="M24.0051 8.30078C24.0447 8.3786 24.071 8.45642 24.1105 8.54721C24.071 8.46939 24.0447 8.39157 24.0051 8.30078Z" fill="#C0C0C0"/>
<path id="Vector_4" d="M19.228 31.5177C19.0422 30.6747 19.3607 30.091 20.1569 29.7408V30.9211C23.7663 28.1066 27.2297 25.3958 30.7064 22.6851C31.0249 22.9315 31.277 23.139 31.5424 23.3465C34.5148 25.6682 37.4873 28.0028 40.473 30.3115C41.0303 30.7395 41.6275 31.1157 42.2113 31.5177C42.2113 31.6474 42.2379 31.7901 42.2379 31.9198C42.2379 40.532 42.2379 49.1442 42.2379 57.7434V58.0677H38.4029V57.5359C38.4029 54.903 38.3498 52.257 38.4294 49.6241C38.456 48.6254 38.0844 48.0028 37.2882 47.471C35.3243 46.1351 33.4002 44.7603 31.4495 43.4114C30.9983 43.1001 30.5604 42.9704 30.0164 43.3595C27.8667 44.877 25.6771 46.3426 23.5407 47.8731C23.262 48.0677 23.0763 48.5605 23.063 48.9107C23.0232 51.7642 23.0365 54.6046 23.0365 57.4581C23.0365 57.6526 23.0365 57.8472 23.0365 58.0806H20.1569V30.986C19.7986 31.1805 19.5067 31.3362 19.2147 31.4918L19.228 31.5177ZM27.588 29.0275C27.588 29.0275 27.6013 29.0923 27.6145 29.1183C27.3889 29.2869 27.1634 29.4555 26.951 29.6371C26.8582 29.7149 26.7387 29.7927 26.6989 29.8965C26.5662 30.2078 26.4468 30.532 26.3406 30.8563C26.1947 31.2843 25.9691 31.7123 25.9558 32.1403C25.916 34.1896 25.9293 36.2389 25.9425 38.2882C25.9425 39.0664 26.261 39.3647 27.0572 39.3647C29.4723 39.3647 31.8874 39.3647 34.3025 39.3647C35.112 39.3647 35.5499 38.9496 35.5233 38.1455C35.4703 36.3297 35.2978 34.5139 35.3641 32.711C35.3906 31.8679 35.1651 31.2065 34.82 30.5061C33.7319 28.366 31.131 27.8602 29.1936 28.4049C28.6496 28.5605 28.1321 28.8199 27.6013 29.0275H27.588Z" fill="#EBEFF0"/>
<path id="Vector_5" d="M47.4131 28.0544C46.7496 28.8715 46.0994 29.6756 45.3961 30.5446C44.3743 29.7405 43.3924 28.9882 42.4237 28.223C39.4778 25.9273 36.5319 23.6315 33.586 21.3228C32.8827 20.7781 32.2192 20.2074 31.5026 19.6886C31.3301 19.5589 31.0116 19.52 30.7861 19.5719C28.6629 20.0129 27.4288 21.7638 25.8231 22.9311C22.8905 25.0842 20.0773 27.3929 17.211 29.6238C16.8129 29.935 16.3883 30.1944 15.9637 30.4928C15.3002 29.6756 14.6765 28.8974 14.0396 28.1192C14.5703 27.6653 15.0746 27.1854 15.6187 26.7444C17.9011 24.9415 20.1967 23.1387 22.4924 21.3358C24.6023 19.6886 26.7255 18.0544 28.8221 16.3942C29.8439 15.5771 31.3832 15.4603 32.405 16.2515C34.6343 17.9636 36.8504 19.7145 39.0664 21.4525C40.964 22.9311 42.8616 24.3968 44.7459 25.8883C45.635 26.5887 46.5108 27.328 47.3866 28.0414L47.4131 28.0544Z" fill="#A16B54"/>
<path id="Vector_6" d="M7.72304 50.7395C7.64342 50.0261 7.59034 49.3257 8.51923 49.0922C8.59885 49.3906 8.67846 49.6889 8.77135 50.0391C10.6026 48.7161 12.394 47.4061 14.1987 46.1091C15.2205 45.3828 16.2555 44.6694 17.2906 43.9561V58.1195H8.67846V50.2077C8.30691 50.4282 8.02824 50.5968 7.73631 50.7654L7.72304 50.7395Z" fill="#EBEFF0"/>
<path id="Vector_7" d="M53.7295 50.6226V58.1064H45.1174V44.5137C47.4662 46.2387 49.7088 47.8859 51.9514 49.5072C52.522 49.9222 53.1324 50.2595 53.7295 50.6356V50.6226Z" fill="#EBEFF0"/>
<path id="Vector_8" d="M30.8391 45.3179C32.4713 46.4592 34.0902 47.6266 35.749 48.729C36.2267 49.0533 36.439 49.5332 36.439 49.9612C36.4921 52.659 36.4655 55.3438 36.4655 58.0805H34.5414C34.5414 56.3944 34.5547 54.7083 34.5414 53.0222C34.5414 52.4904 34.5149 51.9197 34.3291 51.4398C33.7983 50.0001 32.8163 49.0662 31.1709 48.8587C28.7956 48.5604 27.4155 49.9612 26.898 51.79C26.8582 51.9327 26.8847 52.1013 26.8847 52.2569C26.8847 54.1895 26.8847 56.122 26.8847 58.0935H25.0004C25.0004 57.9768 24.9739 57.8211 24.9739 57.6784C24.9739 54.9807 24.9739 52.2829 24.9739 49.598C24.9739 49.3905 25.1331 49.1052 25.3056 48.9755C26.8582 47.86 28.424 46.7705 29.9899 45.6681C30.1756 45.5384 30.388 45.4476 30.6003 45.3438C30.6799 45.3438 30.7595 45.3438 30.8391 45.3438V45.3179Z" fill="#DDE5E8"/>
<path id="Vector_9" d="M58.679 47.017C58.0686 47.8211 57.4449 48.6253 56.7814 49.5072C56.1445 49.0533 55.534 48.6123 54.9236 48.1713C52.3626 46.3166 49.7882 44.4748 47.2271 42.6201C46.2983 41.9456 45.3826 41.2453 44.467 40.5319C44.3211 40.4152 44.1751 40.1947 44.1751 40.0131C44.1618 38.8198 44.1751 37.6266 44.1751 36.4463C44.3609 36.5501 44.5732 36.6149 44.7457 36.7446C48.5143 39.5072 52.2962 42.2569 56.0516 45.0325C56.9406 45.6811 57.7899 46.3685 58.6657 47.0429L58.679 47.017Z" fill="#A06B54"/>
<path id="Vector_10" d="M17.264 36.4331C17.264 37.6264 17.2905 38.8066 17.264 39.9999C17.264 40.1815 17.118 40.402 16.9721 40.5187C13.6413 42.9571 10.2973 45.3825 6.95336 47.8079C6.21025 48.3527 5.48041 48.8974 4.63114 49.52C3.99419 48.6769 3.37051 47.8598 2.74683 47.0297C2.82645 46.9389 2.89279 46.8482 2.98568 46.7703C6.94009 43.865 10.8945 40.9597 14.8622 38.0544C15.6318 37.4837 16.4545 36.9779 17.2507 36.4331H17.264Z" fill="#A06B54"/>
<path id="Vector_11" d="M42.2112 31.5173C41.6273 31.1152 41.0302 30.7521 40.4728 30.3111C37.4871 28.0024 34.5147 25.6678 31.5422 23.3461C31.2768 23.1386 31.0247 22.9311 30.7062 22.6846C27.2295 25.3954 23.7661 28.1062 20.1567 30.9207V29.7404C21.0591 29.0011 21.9482 28.2618 22.8638 27.5355C24.1642 26.5108 25.4779 25.5121 26.7784 24.5005C27.9859 23.5536 29.1935 22.6068 30.4143 21.673C30.5205 21.5951 30.7991 21.6211 30.9053 21.6989C34.1829 24.254 37.4606 26.8351 40.7249 29.3902C40.9373 29.5588 41.1629 29.7274 41.4017 29.8442C42.0917 30.2073 42.3969 30.7391 42.1979 31.5044L42.2112 31.5173Z" fill="#DDE5E8"/>
<path id="Vector_12" d="M19.2279 31.5176C19.519 31.3619 19.8102 31.2063 20.1675 31.0117V58.1064H19.2411C19.2411 58.0026 19.2014 57.8859 19.2014 57.7821C19.2014 49.144 19.2014 40.5059 19.2014 31.8677C19.2014 31.751 19.2146 31.6343 19.2279 31.5176Z" fill="#F9FAFD"/>
<path id="Vector_13" d="M53.7295 50.6225C53.1323 50.2464 52.5219 49.9092 51.9513 49.4941C49.6955 47.8729 47.4661 46.2256 45.1174 44.5006V58.0933H44.1885V42.6978C45.8737 43.9169 47.5192 45.1102 49.1779 46.3164C50.5049 47.2892 51.7921 48.3398 53.1721 49.2347C53.7693 49.6238 53.7826 50.0518 53.7295 50.6096V50.6225Z" fill="#DDE5E8"/>
<path id="Vector_14" d="M47.4129 28.0543C46.5371 27.3409 45.6613 26.6016 44.7722 25.9012C42.8879 24.4096 40.9903 22.944 39.0928 21.4654C36.8767 19.7274 34.6739 17.9764 32.4313 16.2644C31.3963 15.4732 29.8702 15.6029 28.8485 16.407C26.7518 18.0672 24.6287 19.7015 22.5188 21.3487C20.2231 23.1386 17.9274 24.9414 15.645 26.7572C15.101 27.1853 14.5834 27.6652 14.0659 28.1321C13.9465 27.9894 13.827 27.8338 13.6545 27.6262C14.4109 27.0166 15.1408 26.407 15.8839 25.8234C17.3834 24.6561 18.8961 23.5147 20.3823 22.3474C21.8818 21.1801 23.3548 19.9868 24.841 18.8195C26.2741 17.6911 27.7073 16.5886 29.1404 15.4602C30.3612 14.5004 31.3697 14.7858 32.4181 15.6288C34.3289 17.1723 36.2796 18.6379 38.217 20.1554C39.743 21.3617 41.2557 22.5808 42.795 23.7871C44.4007 25.0452 46.0196 26.2903 47.6385 27.5355C47.6385 27.6133 47.6518 27.6911 47.6651 27.7689C47.5854 27.8597 47.5058 27.9505 47.4262 28.0543H47.4129Z" fill="#B47D64"/>
<path id="Vector_15" d="M31.6351 2.78857C31.6351 3.41114 31.6484 4.03371 31.6617 4.65628C31.6617 5.13617 31.7545 5.42152 32.4313 5.40855C33.3867 5.38261 34.3554 5.6031 35.3639 5.71983V7.48378C34.7535 7.48378 34.1564 7.45783 33.5725 7.48378C33.055 7.52269 32.5242 7.58754 32.0332 7.74318C31.8607 7.79506 31.6882 8.15822 31.6882 8.39169C31.6484 9.71464 31.6749 11.0376 31.6617 12.3735C31.6617 12.5681 31.6617 12.7497 31.6617 12.9831H30.7195C30.7195 11.4916 30.7195 9.99999 30.7195 8.4306H29.7641C29.3792 7.80803 28.9015 7.38001 28.0788 7.48378C27.6807 7.53566 27.2826 7.48378 26.8845 7.48378C26.9111 6.44616 26.7386 6.57586 27.8532 6.56289C28.3044 6.56289 28.7688 6.56289 29.22 6.56289C30.2197 6.56289 30.7195 6.083 30.7195 5.1232C30.7195 4.37093 30.7195 3.61866 30.7195 2.81451H31.6351V2.78857Z" fill="#F3BE57"/>
<path id="Vector_16" d="M32.2987 51.5566C32.4181 51.8939 32.6305 52.2181 32.6305 52.5553C32.657 54.3841 32.6437 56.2129 32.6437 58.1066H29.7642C29.7642 57.0041 29.8173 55.8887 29.7509 54.7862C29.658 53.2428 30.4542 51.8679 32.2987 51.5566Z" fill="#F3BE57"/>
<path id="Vector_17" d="M17.2641 36.4334C16.4679 36.9652 15.6452 37.484 14.8755 38.0547C10.9078 40.947 6.95344 43.8653 2.99904 46.7706C2.90615 46.8355 2.8398 46.9392 2.76018 47.03C2.61422 46.9003 2.48152 46.7576 2.28247 46.5761C7.27192 42.9185 12.2348 39.2868 17.2641 35.5903C17.2641 35.9535 17.2641 36.1999 17.2641 36.4464V36.4334Z" fill="#B17B63"/>
<path id="Vector_18" d="M17.2772 43.9429C16.2422 44.6563 15.2071 45.3696 14.1853 46.0959C12.3806 47.393 10.5892 48.7029 8.75799 50.0259C8.6651 49.6887 8.58548 49.3774 8.50586 49.0791C9.35513 48.4435 10.1911 47.795 11.0404 47.1595C12.938 45.7587 14.8488 44.3709 16.7597 42.9701C16.8924 42.8793 17.0516 42.8145 17.2639 42.6978C17.2639 43.1517 17.2639 43.5408 17.2639 43.917L17.2772 43.9429Z" fill="#DCE4E7"/>
<path id="Vector_19" d="M31.6353 2.7885H30.7197C30.7197 3.59265 30.7197 4.34492 30.7197 5.09719C30.7197 6.05698 30.2199 6.53688 29.2202 6.53688C28.7691 6.53688 28.3046 6.53688 27.8534 6.53688C26.7388 6.53688 26.9113 6.40717 26.8847 7.45776H25.8364V5.60302C26.7122 5.60302 27.6013 5.60302 28.4904 5.60302C29.1539 5.60302 29.7245 5.04531 29.7245 4.38383C29.7245 3.56671 29.7245 2.74959 29.7245 1.89355H31.6221V2.7885H31.6353Z" fill="#F6CD7F"/>
<path id="Vector_20" d="M58.6791 47.0171C57.8033 46.3426 56.954 45.6682 56.065 45.0067C52.2963 42.244 48.5277 39.4814 44.7591 36.7187C44.5866 36.589 44.3743 36.5242 44.1885 36.4204C44.1885 36.174 44.1885 35.9276 44.1885 35.5903C49.1647 39.2349 54.101 42.8536 59.0905 46.5112C58.9445 46.6928 58.8118 46.8484 58.6791 47.0041V47.0171Z" fill="#B17B63"/>
<path id="Vector_21" d="M32.2988 51.5566C30.4676 51.8809 29.6581 53.2427 29.751 54.7862C29.8173 55.8887 29.7643 56.9911 29.7643 58.1065H28.8088C28.8088 57.2635 28.8088 56.4334 28.8088 55.6033C28.8088 54.5657 28.8088 53.541 28.8088 52.5034C28.8088 51.4139 29.5121 50.7784 30.6003 50.7265C31.3699 50.6876 31.8874 50.9859 32.2988 51.5566Z" fill="#EAAB4E"/>
<path id="Vector_22" d="M7.72314 50.7394C8.00106 50.5707 8.29222 50.4021 8.66278 50.1816V58.0934H7.72314V50.7264V50.7394Z" fill="#F9FAFD"/>
<path id="Vector_23" d="M29.7642 8.41748H30.717C30.717 9.98687 30.717 11.4784 30.717 12.97C30.4126 12.996 30.095 13.0089 29.7642 13.0349V8.41748Z" fill="#F6CD7F"/>
<path id="Vector_24" d="M30.8383 45.3175C30.7589 45.3175 30.6795 45.3175 30.6001 45.3175L30.7192 45.1489C30.7192 45.1489 30.7986 45.2527 30.8383 45.3175Z" fill="#010101"/>
<path id="Vector_25" d="M47.6517 27.7691C47.6517 27.6913 47.6385 27.6135 47.6252 27.5356C47.6914 27.5746 47.7576 27.6264 47.8238 27.6653C47.7708 27.7043 47.7047 27.7302 47.6517 27.7691Z" fill="#030202"/>
<path id="Vector_26" d="M27.588 29.0273C28.1188 28.8198 28.6364 28.5474 29.1804 28.4047C31.1178 27.873 33.732 28.3658 34.8068 30.5059C35.1651 31.2063 35.3907 31.8678 35.3509 32.7108C35.2845 34.5137 35.457 36.3425 35.5101 38.1453C35.5367 38.9495 35.0988 39.3645 34.2893 39.3645C31.8742 39.3645 29.4591 39.3645 27.044 39.3645C26.2345 39.3645 25.9293 39.0662 25.9293 38.288C25.9293 36.2387 25.9028 34.1894 25.9426 32.1402C25.9426 31.7121 26.1814 31.2841 26.3274 30.8561C26.4336 30.5319 26.553 30.2076 26.6857 29.8963C26.7255 29.7926 26.8449 29.7147 26.9378 29.6369C27.1501 29.4553 27.3757 29.2867 27.6013 29.1181C27.6013 29.0922 27.588 29.0533 27.5748 29.0273H27.588ZM32.5244 30.6745C32.4448 30.5837 32.3917 30.454 32.2856 30.4151C30.8259 29.8185 28.7823 29.7926 28.0392 31.7381C27.8933 32.1012 27.8534 32.5163 27.8402 32.9184C27.8136 34.4359 27.8402 35.9404 27.8402 37.4709H33.5993C33.5993 37.3153 33.5993 37.1985 33.5993 37.0818C33.5993 35.6421 33.6391 34.2024 33.586 32.7627C33.5595 31.9456 33.2808 31.1804 32.5244 30.6745Z" fill="black"/>
<path id="Vector_27" d="M32.5244 30.6875C33.2675 31.1933 33.5462 31.9586 33.586 32.7757C33.6391 34.2154 33.5992 35.6551 33.5992 37.0948C33.5992 37.2115 33.5992 37.3153 33.5992 37.4839H28.8088C28.8088 36.6019 28.8088 35.7329 28.8088 34.8509C28.8088 32.8535 29.8837 31.5306 31.8742 31.0118C32.0998 30.9469 32.3121 30.8042 32.5377 30.6875H32.5244Z" fill="#F3BE57"/>
<path id="Vector_28" d="M32.5243 30.6873C32.2987 30.7911 32.0997 30.9467 31.8608 31.0116C29.8704 31.5304 28.7955 32.8534 28.7955 34.8508C28.7955 35.7327 28.7955 36.6017 28.7955 37.4837H27.8401C27.8401 35.9662 27.8401 34.4487 27.8401 32.9312C27.8401 32.5421 27.8932 32.1141 28.0391 31.7509C28.7822 29.8054 30.8258 29.8313 32.2855 30.4279C32.3784 30.4668 32.4447 30.5965 32.5243 30.6873Z" fill="#EAAB4E"/>
</g>
<defs>
<clipPath id="clip0_72_24">
<rect width="61.426" height="60" fill="white"/>
</clipPath>
</defs>
</svg>
