<?xml version="1.0" encoding="utf-8"?>
<!-- Generator: Adobe Illustrator 27.7.0, SVG Export Plug-In . SVG Version: 6.00 Build 0)  -->
<svg version="1.1" id="Layer_1" xmlns="http://www.w3.org/2000/svg" xmlns:xlink="http://www.w3.org/1999/xlink" x="0px" y="0px"
	 viewBox="0 0 24 24" style="enable-background:new 0 0 24 24;" xml:space="preserve">
<style type="text/css">
	.st0{fill:#FFFFFF;}
</style>
<path class="st0" d="M16,13l-4.1-4.1c-0.5-0.5-1-1.1-1.3-1.7S10,6,10,5.3c0-0.9,0.3-1.7,1-2.3s1.4-1,2.3-1c0.5,0,1,0.1,1.5,0.3
	c0.5,0.2,0.9,0.5,1.2,0.9c0.3-0.4,0.7-0.7,1.2-0.9c0.5-0.2,1-0.3,1.5-0.3c0.9,0,1.7,0.3,2.3,1s1,1.4,1,2.3c0,0.7-0.2,1.4-0.5,2
	s-0.8,1.2-1.3,1.7L16,13z M16,10.2l2.7-2.7c0.3-0.3,0.6-0.7,0.9-1C19.9,6.2,20,5.7,20,5.3c0-0.4-0.1-0.7-0.4-0.9S19.1,4,18.7,4
	c-0.2,0-0.5,0-0.7,0.1s-0.4,0.2-0.5,0.4L16,6.3l-1.5-1.8c-0.1-0.2-0.3-0.3-0.5-0.4C13.8,4,13.5,4,13.3,4c-0.4,0-0.7,0.1-0.9,0.4
	S12,4.9,12,5.3c0,0.4,0.1,0.9,0.4,1.2c0.3,0.4,0.6,0.7,0.9,1L16,10.2z M7,18.5l6.9,1.9l5.9-1.9c-0.1-0.1-0.2-0.3-0.4-0.4
	S19.2,18,19,18h-5.1c-0.4,0-0.8,0-1.1,0c-0.3,0-0.5-0.1-0.8-0.2L9.7,17l0.6-2l2,0.7c0.3,0.1,0.6,0.1,1,0.2S14.2,16,15,16
	c0-0.2-0.1-0.4-0.2-0.5c-0.1-0.2-0.2-0.3-0.4-0.3L8.6,13H7V18.5z M1,22V11h7.6c0.1,0,0.2,0,0.3,0c0.1,0,0.2,0.1,0.3,0.1l5.9,2.2
	c0.5,0.2,1,0.5,1.3,1S17,15.4,17,16h2c0.8,0,1.5,0.3,2.1,0.8c0.6,0.5,0.9,1.3,0.9,2.2v1l-8,2.5l-7-2V22H1z M3,20h2v-7H3V20z"/>
</svg>
