<?xml version="1.0" encoding="utf-8"?>
<!-- Generator: Adobe Illustrator 27.7.0, SVG Export Plug-In . SVG Version: 6.00 Build 0)  -->
<svg version="1.1" id="Layer_1" xmlns="http://www.w3.org/2000/svg" xmlns:xlink="http://www.w3.org/1999/xlink" x="0px" y="0px"
	 viewBox="0 0 24 24" style="enable-background:new 0 0 24 24;" xml:space="preserve">
<style type="text/css">
	.st0{fill:#FFFFFF;}
</style>
<path class="st0" d="M9,13h2v-2.8h2V13h2V8.2l-3-2l-3,2V13z M12,19.4c2-1.9,3.5-3.6,4.5-5.1s1.5-2.9,1.5-4.1c0-1.8-0.6-3.3-1.7-4.5
	S13.7,4,12,4S8.9,4.6,7.7,5.7S6,8.4,6,10.2c0,1.2,0.5,2.5,1.5,4.1S10,17.5,12,19.4z M12,22c-2.7-2.3-4.7-4.4-6-6.4s-2-3.8-2-5.4
	c0-2.5,0.8-4.5,2.4-6S9.9,2,12,2s4,0.7,5.6,2.2s2.4,3.5,2.4,6c0,1.7-0.7,3.5-2,5.4C16.7,17.6,14.7,19.7,12,22z"/>
</svg>
