<?xml version="1.0" encoding="utf-8"?>
<!-- Generator: Adobe Illustrator 27.7.0, SVG Export Plug-In . SVG Version: 6.00 Build 0)  -->
<svg version="1.1" id="Layer_1" xmlns="http://www.w3.org/2000/svg" xmlns:xlink="http://www.w3.org/1999/xlink" x="0px" y="0px"
	 viewBox="0 0 24 24" style="enable-background:new 0 0 24 24;" xml:space="preserve">
<style type="text/css">
	.st0{fill:#FFFFFF;}
</style>
<path class="st0" d="M12,22l-0.2-3h-0.2c-2.4,0-4.4-0.8-6-2.5S3,12.9,3,10.5s0.8-4.4,2.5-6S9.1,2,11.5,2c1.2,0,2.3,0.2,3.3,0.7
	s1.9,1,2.7,1.8s1.4,1.7,1.8,2.7c0.4,1,0.7,2.1,0.7,3.3c0,1.2-0.2,2.4-0.6,3.6s-1,2.2-1.7,3.2c-0.7,1-1.5,1.9-2.5,2.7
	C14.2,20.8,13.2,21.5,12,22z M14,18.4c1.2-1,2.1-2.2,2.9-3.5s1.1-2.8,1.1-4.3c0-1.8-0.6-3.4-1.9-4.6C14.9,4.6,13.3,4,11.5,4
	S8.1,4.6,6.9,5.9S5,8.7,5,10.5s0.6,3.4,1.9,4.6S9.7,17,11.5,17H14V18.4z M11.5,16c0.3,0,0.5-0.1,0.7-0.3c0.2-0.2,0.3-0.4,0.3-0.7
	s-0.1-0.5-0.3-0.7c-0.2-0.2-0.4-0.3-0.7-0.3s-0.5,0.1-0.7,0.3c-0.2,0.2-0.3,0.4-0.3,0.7s0.1,0.5,0.3,0.7C10.9,15.9,11.2,16,11.5,16z
	 M10.8,12.8h1.5c0-0.5,0.1-0.9,0.2-1.1c0.1-0.2,0.4-0.6,0.9-1.1c0.3-0.3,0.6-0.6,0.8-1c0.2-0.4,0.3-0.7,0.3-1.1
	c0-0.9-0.3-1.5-0.9-1.9C13,6.2,12.3,6,11.5,6c-0.7,0-1.3,0.2-1.8,0.6S8.8,7.5,8.6,8.1L10,8.6c0.1-0.3,0.2-0.6,0.5-0.8
	c0.2-0.3,0.6-0.4,1-0.4s0.8,0.1,1,0.4c0.2,0.2,0.3,0.5,0.3,0.8c0,0.3-0.1,0.5-0.2,0.8c-0.2,0.2-0.4,0.5-0.6,0.7
	c-0.6,0.5-0.9,0.9-1.1,1.2C10.8,11.5,10.8,12.1,10.8,12.8z"/>
</svg>
